<svg width="24" height="24" viewBox="0 0 24 24" fill="none" xmlns="http://www.w3.org/2000/svg">
  <path d="M12 15.5a3.5 3.5 0 1 0 0-7 3.5 3.5 0 0 0 0 7Z" stroke="#135B45" stroke-width="2"/>
  <path d="M19 12a7.3 7.3 0 0 0-.1-1l2-1.5-2-3.4-2.4 1a7.3 7.3 0 0 0-1.7-1L14.5 3h-5l-.3 3.1a7.3 7.3 0 0 0-1.7 1l-2.4-1-2 3.4 2 1.5a7.3 7.3 0 0 0 0 2l-2 1.5 2 3.4 2.4-1a7.3 7.3 0 0 0 1.7 1l.3 3.1h5l.3-3.1a7.3 7.3 0 0 0 1.7-1l2.4 1 2-3.4-2-1.5c.1-.3.1-.7.1-1Z" stroke="#135B45" stroke-width="1.7" stroke-linecap="round" stroke-linejoin="round"/>
</svg>